<svg width="80" height="80" viewBox="0 0 80 80" fill="none" xmlns="http://www.w3.org/2000/svg">
<path d="M3.48573 64.1452H7.9562C8.50329 64.1452 8.94096 63.6698 8.94096 63.096L8.92532 34.587C8.92532 34.0132 8.48766 33.5542 7.94057 33.5542H3.48573C2.95428 33.5542 2.50098 34.0296 2.50098 34.587V63.096C2.50098 63.6698 2.95428 64.1452 3.48573 64.1452ZM72.1215 64.1452H76.5764C77.1078 64.1452 77.5611 63.6534 77.5611 63.096V34.587C77.5611 34.0296 77.1078 33.5542 76.5764 33.5542H72.1215C71.5901 33.5542 71.1368 34.0296 71.1368 34.587V63.096C71.1368 63.6698 71.5901 64.1452 72.1215 64.1452Z" fill="#68B1FF"/>
<path d="M37.0924 50.2924L44.9079 42.6692C45.3143 42.2593 45.9239 42.1938 46.4084 42.5053L54.771 47.9152C56.1622 48.8169 54.8648 51.0465 53.458 50.1448L45.8926 45.243L40.4061 50.5874L52.5514 64.5714L68.6514 59.7516V37.3576L40.8751 31.5541L31.1369 44.7512C28.2139 48.7021 33.1846 54.0957 37.0924 50.2924Z" fill="white"/>
<path d="M31.9967 75.916C32.8407 75.1455 32.6219 74.8012 32.1217 74.0307C31.2308 72.6372 33.1221 71.1782 34.1225 72.4569C36.4515 75.5062 43.8762 72.752 41.4222 70.1782C40.3905 68.8503 42.3131 67.1945 43.3448 68.506C45.455 70.7192 52.442 68.5716 50.9727 66.6207L38.593 52.3908C32.45 58.0467 24.4156 49.5383 29.1518 43.1446L34.3413 36.1281L27.0416 33.8329L11.4575 37.374V61.2107L25.0878 76.7029C26.1976 77.9489 30.2616 77.4898 31.9967 75.916ZM52.7547 14.6193H55.4432C55.537 14.6193 55.6151 14.5373 55.6151 14.4389V4.8649C55.6151 4.76654 55.537 4.68457 55.4432 4.68457H52.7547C52.6609 4.68457 52.5827 4.76654 52.5827 4.8649V14.4389C52.5827 14.5373 52.6609 14.6193 52.7547 14.6193Z" fill="white"/>
<path d="M66.8225 23.5212H69.511C69.6048 23.5212 69.683 23.4392 69.683 23.3408V13.7668C69.683 13.6684 69.6048 13.5865 69.511 13.5865H66.8225C66.7287 13.5865 66.6506 13.6684 66.6506 13.7668V23.3408C66.6506 23.4392 66.7287 23.5212 66.8225 23.5212ZM38.6867 19.5866H41.3752C41.469 19.5866 41.5471 19.5046 41.5471 19.4063V9.83225C41.5471 9.73389 41.469 9.65192 41.3752 9.65192H38.6867C38.5929 9.65192 38.5147 9.73389 38.5147 9.83225V19.4063C38.5147 19.5046 38.5929 19.5866 38.6867 19.5866ZM10.5508 17.1603H13.2394C13.3332 17.1603 13.4113 17.0784 13.4113 16.98V7.38956C13.4113 7.2912 13.3332 7.20923 13.2394 7.20923H10.5508C10.4571 7.20923 10.3789 7.2912 10.3789 7.38956V16.9636C10.3789 17.0784 10.4571 17.1603 10.5508 17.1603Z" fill="#68B1FF"/>
<path d="M24.6187 15.2422H27.3073C27.401 15.2422 27.4792 15.1602 27.4792 15.0619V5.48783C27.4792 5.38946 27.401 5.3075 27.3073 5.3075H24.6187C24.5249 5.3075 24.4468 5.38946 24.4468 5.48783V15.0619C24.4468 15.1602 24.5249 15.2422 24.6187 15.2422Z" fill="white"/>
<path d="M10.5509 19.7833H10.6447V23.0949C10.6447 24.8163 13.1457 24.8163 13.1457 23.0949V19.7833H13.2395C14.7088 19.7833 15.9124 18.521 15.9124 16.98V7.38955C15.9124 5.84852 14.7088 4.58619 13.2395 4.58619H13.1457V1.29102C13.1457 -0.43034 10.6447 -0.43034 10.6447 1.29102V4.60258H10.5509C9.08162 4.60258 7.87803 5.86491 7.87803 7.40594V16.98C7.87803 18.5374 9.06599 19.7833 10.5509 19.7833ZM10.379 7.38955C10.379 7.29118 10.4571 7.20921 10.5509 7.20921H13.2395C13.3333 7.20921 13.4114 7.29118 13.4114 7.38955V16.9636C13.4114 17.0619 13.3333 17.1439 13.2395 17.1439H10.5509C10.4571 17.1439 10.379 17.0619 10.379 16.9636V7.38955ZM24.6188 17.8652H24.7126V23.1113C24.7126 24.8326 27.2136 24.8326 27.2136 23.1113V17.8652H27.3074C28.7767 17.8652 29.9803 16.6029 29.9803 15.0619V5.48785C29.9803 3.94683 28.7767 2.6845 27.3074 2.6845H27.2136V1.30741C27.2136 -0.413946 24.7126 -0.413946 24.7126 1.30741V2.6845H24.6188C23.1495 2.6845 21.9459 3.94683 21.9459 5.48785V15.0619C21.9459 16.6029 23.1339 17.8652 24.6188 17.8652ZM24.4469 5.48785C24.4469 5.38949 24.5251 5.30752 24.6188 5.30752H27.3074C27.4012 5.30752 27.4793 5.38949 27.4793 5.48785V15.0619C27.4793 15.1603 27.4012 15.2422 27.3074 15.2422H24.6188C24.5251 15.2422 24.4469 15.1603 24.4469 15.0619V5.48785ZM38.6868 22.2096H38.7806V23.1113C38.7806 24.8326 41.2815 24.8326 41.2815 23.1113V22.2096H41.3753C42.8446 22.2096 44.0482 20.9473 44.0482 19.4063V9.83224C44.0482 8.29121 42.8446 7.02888 41.3753 7.02888H41.2815V1.29102C41.2815 -0.43034 38.7806 -0.43034 38.7806 1.29102V7.02888H38.6868C37.2174 7.02888 36.0139 8.29121 36.0139 9.83224V19.4063C36.0139 20.9473 37.2174 22.2096 38.6868 22.2096ZM38.5148 9.83224C38.5148 9.73387 38.593 9.6519 38.6868 9.6519H41.3753C41.4691 9.6519 41.5472 9.73387 41.5472 9.83224V19.4063C41.5472 19.5046 41.4691 19.5866 41.3753 19.5866H38.6868C38.593 19.5866 38.5148 19.5046 38.5148 19.4063V9.83224ZM3.48572 66.7354H7.94056C9.33172 66.7354 10.5353 65.8829 11.098 64.6534L23.2277 78.4407C25.5567 81.0801 31.2464 80.0145 33.5911 77.8669C34.2007 77.3259 34.6071 76.7029 34.8259 76.0472C37.7958 77.0636 43.7825 75.6537 44.2827 71.8995C47.2682 72.5881 53.8488 71.0634 53.6769 66.9486L68.5733 62.473V63.0796C68.5733 65.096 70.1364 66.7354 72.059 66.7354H76.5138C78.4364 66.7354 79.9995 65.096 79.9995 63.0796V34.587C80.0308 32.5706 78.4677 30.9312 76.5451 30.9312H72.0902C70.1051 30.9312 68.6045 32.6034 68.6045 34.669L40.5625 28.8164C40.0936 28.718 39.6246 28.8983 39.3276 29.2918L35.9513 33.8657L27.1042 31.1115L11.4575 34.669C11.4575 32.6034 9.97259 30.9148 7.97182 30.9148H3.48572C1.5631 30.9148 0 32.5542 0 34.5706V63.0796C0 65.096 1.5631 66.7354 3.48572 66.7354ZM71.1367 34.587C71.1367 34.0296 71.59 33.5542 72.1215 33.5542H76.5763C77.1078 33.5542 77.5611 34.0296 77.5611 34.587V63.096C77.5611 63.6534 77.1078 64.1452 76.5763 64.1452H72.1215C71.59 64.1452 71.1367 63.6698 71.1367 63.096V34.587ZM40.8751 31.5541L68.6514 37.3576V59.768L52.5515 64.5878L40.4062 50.6038L45.8927 45.2594L53.4581 50.1448C54.8649 51.0465 56.1622 48.8169 54.7711 47.9152L46.4085 42.5053C45.9239 42.1938 45.3143 42.2593 44.9079 42.6692L37.0924 50.2924C33.1846 54.1121 28.214 48.7022 31.137 44.7512L40.8751 31.5541ZM11.4575 37.374L27.026 33.8329L34.3257 36.1116L29.1362 43.1282C24.4156 49.5218 32.4344 58.0467 38.5773 52.3744L50.9571 66.6043C52.4264 68.5552 45.4394 70.7028 43.3292 68.4896C42.2975 67.1781 40.3593 68.8338 41.4066 70.1618C43.8606 72.7356 36.4359 75.4898 34.1069 72.4405C33.1065 71.1618 31.2151 72.6208 32.1061 74.0143C32.6063 74.8012 32.8251 75.1455 31.9811 75.8996C30.246 77.4734 26.182 77.9325 25.0878 76.6865L11.4575 61.1943V37.374ZM2.50096 34.587C2.50096 34.0296 2.95426 33.5542 3.48572 33.5542H7.94056C8.48764 33.5542 8.92531 34.0132 8.92531 34.587L8.94094 63.096C8.94094 63.6698 8.50327 64.1452 7.95619 64.1452H3.48572C2.95426 64.1452 2.50096 63.6698 2.50096 63.096V34.587ZM52.7547 17.2423H52.8485V23.1113C52.8485 24.8326 55.3494 24.8326 55.3494 23.1113V17.2423H55.4432C56.9125 17.2423 58.1161 15.9799 58.1161 14.4389V4.86489C58.1161 3.32386 56.9125 2.06153 55.4432 2.06153H55.3494V1.30741C55.3494 -0.413946 52.8485 -0.413946 52.8485 1.30741V2.06153H52.7547C51.2854 2.06153 50.0818 3.32386 50.0818 4.86489V14.4389C50.0818 15.9799 51.2854 17.2423 52.7547 17.2423ZM52.5827 4.86489C52.5827 4.76652 52.6609 4.68455 52.7547 4.68455H55.4432C55.537 4.68455 55.6152 4.76652 55.6152 4.86489V14.4389C55.6152 14.5373 55.537 14.6193 55.4432 14.6193H52.7547C52.6609 14.6193 52.5827 14.5373 52.5827 14.4389V4.86489ZM66.8382 26.1442H69.5268C70.9961 26.1442 72.1997 24.8818 72.1997 23.3408V13.7668C72.1997 12.2257 70.9961 10.9634 69.5268 10.9634H69.433V1.29102C69.433 -0.43034 66.932 -0.43034 66.932 1.29102V10.9634H66.8382C65.3689 10.9634 64.1653 12.2257 64.1653 13.7668V23.3408C64.1653 24.8818 65.3533 26.1442 66.8382 26.1442ZM66.6507 13.7668C66.6507 13.6684 66.7288 13.5864 66.8226 13.5864H69.5111C69.6049 13.5864 69.6831 13.6684 69.6831 13.7668V23.3408C69.6831 23.4392 69.6049 23.5211 69.5111 23.5211H66.8226C66.7288 23.5211 66.6507 23.4392 66.6507 23.3408V13.7668Z" fill="#2D527C"/>
</svg>
