<svg width="70" height="60" viewBox="0 0 70 60" fill="none" xmlns="http://www.w3.org/2000/svg">
<path d="M37.3652 55.5469H32.6074C30.625 55.5469 30.625 58.125 32.6074 58.125H37.3652C39.3203 58.125 39.3477 55.5469 37.3652 55.5469Z" fill="#68B1FF"/>
<path d="M29.2033 41.6484L29.1896 44.7656H33.9201V22.7695C29.6134 22.4648 25.7579 20.3789 23.5704 17.2148C23.174 17.9062 23.0236 18.6563 23.0236 19.418C23.0236 21.9961 25.4708 24.0938 28.4786 24.0938C29.9142 24.0938 29.9142 25.9688 28.4786 25.9688C25.0607 25.9688 22.0665 24.0234 21.1232 21.2227C18.7443 22.9805 18.7579 26.1914 20.9044 28.0664C21.8204 28.875 23.1193 29.3906 24.7462 29.3906C26.1818 29.3906 26.1818 31.2656 24.7462 31.2656C22.6954 31.2656 20.7814 30.6328 19.3458 29.3672C17.2951 32.4375 19.8927 36.3516 24.09 36.3516C27.0978 36.3516 29.5451 34.2656 29.5451 31.6758C29.5451 30.4453 31.7326 30.4453 31.7326 31.6758C31.7326 35.2266 28.424 38.1445 24.2677 38.2266C25.0333 39.5273 26.5236 40.4531 28.1915 40.7227C28.7794 40.8047 29.2033 41.1211 29.2033 41.6484Z" fill="white"/>
<path d="M35 20.9297C41.125 20.9297 46.1152 16.6523 46.1152 11.4023C46.1152 6.15234 41.125 1.875 35 1.875C28.875 1.875 23.8848 6.15234 23.8848 11.4023C23.8848 16.6406 28.875 20.9297 35 20.9297ZM33.9062 6.45703V5.92969C33.9062 4.69922 36.0938 4.69922 36.0938 5.92969V6.45703H38.1582C39.5938 6.45703 39.5938 8.33203 38.1582 8.33203H33.9473C32.4023 8.33203 32.4023 10.4062 33.9473 10.4062H36.0527C40.4551 10.4062 40.5234 16.3125 36.0938 16.3594V16.8867C36.0938 18.1172 33.9062 18.1172 33.9062 16.8867V16.3594H31.9922C30.5566 16.3594 30.5566 14.4961 31.9922 14.4961H36.0527C37.5977 14.4961 37.625 12.293 36.0527 12.293H33.9473C29.5586 12.2812 29.5176 6.50391 33.9062 6.45703Z" fill="white"/>
<path d="M45.2539 31.2539C43.8184 31.2539 43.8184 29.3789 45.2539 29.3789C46.8809 29.3789 48.1797 28.8516 49.0957 28.0547C51.2559 26.1797 51.2695 22.9687 48.8906 21.2109C47.9609 24.0117 44.9531 25.957 41.5488 25.957C40.1133 25.957 40.1133 24.082 41.5488 24.082C44.5566 24.082 47.0039 21.9844 47.0039 19.4063C47.0039 18.6445 46.8398 17.8828 46.4434 17.2031C44.2422 20.3789 40.3867 22.4648 36.0801 22.7695V44.7773H40.8105L40.7969 41.6602C40.7969 41.0508 41.2891 40.8047 41.877 40.7109C43.5176 40.4297 44.9668 39.5039 45.7188 38.2266C41.5762 38.1445 38.2539 35.2266 38.2539 31.6758C38.2539 30.4453 40.4414 30.4453 40.4414 31.6758C40.4414 34.2539 42.8887 36.3516 45.8965 36.3516C50.0938 36.3516 52.6914 32.4375 50.6543 29.3672C49.2324 30.6211 47.3047 31.2539 45.2539 31.2539Z" fill="white"/>
<path d="M40.4141 51.0938H29.5586C27.5488 51.0938 27.6172 53.6719 29.5586 53.6719H40.4141C42.3965 53.6719 42.3965 51.0938 40.4141 51.0938ZM26.9336 49.2188H43.0391C44.9941 49.2188 45.0488 46.6407 43.0391 46.6407H26.9199C24.9648 46.6289 24.9512 49.2188 26.9336 49.2188Z" fill="#68B1FF"/>
<path d="M49.1778 19.0898C49.1094 17.6719 48.5899 16.3125 47.5235 15.2109C50.586 7.88672 44.2286 0 35.0001 0C25.8672 0 19.3458 7.69922 22.4766 15.2227C21.4102 16.3125 20.9044 17.6719 20.836 19.0898C17.2813 20.8828 16.1602 24.6328 17.9922 27.7266C14.8204 31.3242 16.8301 36.6094 21.8067 37.9219C22.5176 40.0781 24.5274 41.7539 27.0157 42.3867L27.002 44.7656H26.92C22.5723 44.7656 21.834 50.2852 26.2227 51.0234C25.129 53.0156 26.7286 55.3359 29.2442 55.5234C28.1368 57.6211 29.9551 59.9883 32.6075 59.9883H37.3653C40.0176 59.9883 41.836 57.6094 40.7286 55.5234C43.2579 55.3359 44.8575 53.0156 43.7501 51.0234C48.043 50.2969 47.4961 44.7656 43.0391 44.7656H42.9981L42.9844 42.3867C45.4727 41.7539 47.4825 40.0781 48.1934 37.9219C53.17 36.6094 55.1797 31.3242 52.0079 27.7266C53.8399 24.6445 52.7325 20.8945 49.1778 19.0898ZM35.0001 1.875C41.1251 1.875 46.1153 6.15234 46.1153 11.4023C46.1153 16.6523 41.1251 20.9297 35.0001 20.9297C28.8751 20.9297 23.8848 16.6523 23.8848 11.4023C23.8848 6.15234 28.8751 1.875 35.0001 1.875ZM24.2676 38.2148C28.4102 38.1328 31.7325 35.2148 31.7325 31.6641C31.7325 30.4336 29.545 30.4336 29.545 31.6641C29.545 34.2422 27.0977 36.3398 24.0899 36.3398C19.8926 36.3398 17.295 32.4258 19.3458 29.3555C20.795 30.6211 22.6954 31.2539 24.7462 31.2539C26.1817 31.2539 26.1817 29.3789 24.7462 29.3789C23.1192 29.3789 21.8204 28.8516 20.9044 28.0547C18.7442 26.168 18.7305 22.9688 21.1231 21.2109C22.0528 24.0117 25.0606 25.957 28.4786 25.957C29.9141 25.957 29.9141 24.082 28.4786 24.082C25.4708 24.082 23.0235 21.9844 23.0235 19.4062C23.0235 18.6445 23.1739 17.8945 23.5704 17.2031C25.7715 20.3672 29.627 22.4648 33.92 22.7578V44.7656H29.1895L29.2032 41.6484C29.2032 41.1211 28.7794 40.793 28.2051 40.7109C26.5235 40.4414 25.0469 39.5156 24.2676 38.2148ZM37.3653 58.125H32.6075C30.6251 58.125 30.6251 55.5469 32.6075 55.5469H37.3653C39.3477 55.5469 39.3204 58.125 37.3653 58.125ZM40.4141 53.6719H29.5587C27.6172 53.6719 27.5489 51.0938 29.5587 51.0938H40.4141C42.3965 51.0938 42.3965 53.6719 40.4141 53.6719ZM43.0528 46.6406C45.0489 46.6406 44.9942 49.2188 43.0528 49.2188H26.9473C24.9649 49.2188 24.9786 46.6289 26.9473 46.6406H43.0528ZM45.9102 36.3398C42.9024 36.3398 40.4551 34.2539 40.4551 31.6641C40.4551 30.4336 38.2676 30.4336 38.2676 31.6641C38.2676 35.2148 41.5762 38.1328 45.7325 38.2148C44.9805 39.4922 43.5313 40.418 41.8907 40.6992C41.2891 40.8047 40.7969 41.0508 40.8106 41.6484L40.8243 44.7656H36.0938V22.7695C40.4004 22.4648 44.2559 20.3789 46.4571 17.2031C46.8536 17.8945 47.0176 18.6445 47.0176 19.4062C47.0176 21.9844 44.5704 24.082 41.5626 24.082C40.127 24.082 40.127 25.957 41.5626 25.957C44.9669 25.957 47.9747 24.0117 48.9044 21.2109C51.2833 22.9688 51.2559 26.168 49.1094 28.0547C48.1934 28.8633 46.8946 29.3789 45.2676 29.3789C43.8321 29.3789 43.8321 31.2539 45.2676 31.2539C47.3184 31.2539 49.2325 30.6211 50.668 29.3555C52.7051 32.4258 50.1075 36.3398 45.9102 36.3398Z" fill="#2D527C"/>
<path d="M33.9473 12.2813H36.0528C37.6251 12.2813 37.5977 14.4844 36.0528 14.4844H31.9923C30.5567 14.4844 30.5567 16.3477 31.9923 16.3477H33.9063V16.875C33.9063 18.1055 36.0938 18.1055 36.0938 16.875V16.3594C40.5235 16.3125 40.4552 10.4063 36.0528 10.4063H33.9473C32.4024 10.4063 32.4024 8.33203 33.9473 8.33203H38.1583C39.5938 8.33203 39.5938 6.45703 38.1583 6.45703H36.0938V5.92969C36.0938 4.69922 33.9063 4.69922 33.9063 5.92969V6.45703C29.5176 6.50391 29.5587 12.2813 33.9473 12.2813Z" fill="#2D527C"/>
</svg>
