<svg width="60" height="60" viewBox="0 0 60 60" fill="none" xmlns="http://www.w3.org/2000/svg">
<g clip-path="url(#clip0_97_1253)">
<path d="M27.293 45.1875H32.707V47.4023H27.293V45.1875Z" fill="white"/>
<path d="M50.9414 16.6758H56.3555V55.1602H50.9414V16.6758Z" fill="#68B1FF"/>
<path d="M50.9414 12.9492H56.3555V14.8359H50.9414V12.9492Z" fill="white"/>
<path d="M39.1172 30.7734H44.5313V55.1836H39.1172V30.7734Z" fill="#68B1FF"/>
<path d="M39.1172 26.9414H44.5313V28.9453H39.1172V26.9414Z" fill="white"/>
<path d="M53.6485 6C54.797 6 55.7345 5.0625 55.7345 3.91406C55.7345 2.76563 54.797 1.82812 53.6485 1.82812C52.4884 1.82812 51.5509 2.76563 51.5626 3.91406C51.5626 5.0625 52.5001 6 53.6485 6ZM17.5431 25.6523C16.3829 25.6523 15.4454 26.5898 15.4571 27.7383C15.4571 28.8867 16.3946 29.8242 17.5431 29.8242C18.6915 29.8242 19.629 28.8867 19.629 27.7383C19.6407 26.5898 18.7032 25.6523 17.5431 25.6523ZM15.4571 41.6484H20.8712V55.1719H15.4571V41.6484Z" fill="#68B1FF"/>
<path d="M41.8242 20.5547C42.9762 20.5547 43.9102 19.6208 43.9102 18.4688C43.9102 17.3167 42.9762 16.3828 41.8242 16.3828C40.6722 16.3828 39.7383 17.3167 39.7383 18.4688C39.7383 19.6208 40.6722 20.5547 41.8242 20.5547Z" fill="#68B1FF"/>
<path d="M15.457 37.7578H20.8711V39.7969H15.457V37.7578Z" fill="white"/>
<path d="M27.293 49.2422H32.707V55.1719H27.293V49.2422Z" fill="#68B1FF"/>
<path d="M28.4057 33.256C29.5427 33.0708 30.3144 31.9989 30.1292 30.8619C29.944 29.7248 28.8721 28.9532 27.7351 29.1383C26.598 29.3235 25.8264 30.3954 26.0116 31.5324C26.1967 32.6695 27.2686 33.4411 28.4057 33.256Z" fill="#68B1FF"/>
<path d="M17.543 23.8359C15.3751 23.8359 13.6172 25.5937 13.6172 27.7617C13.6055 29.9062 15.3751 31.6758 17.543 31.6758C18.9493 31.6758 20.1915 30.9258 20.8829 29.8125L24.1524 30.8789C24.1407 30.9844 24.1407 31.0898 24.1407 31.1953C24.1407 33.3633 25.8985 35.1211 28.0665 35.1211C30.2344 35.1211 31.9922 33.3633 31.9922 31.1953C31.9922 30.5039 31.8047 29.8477 31.4883 29.2734L39.6329 21.7383C40.254 22.1602 41.004 22.3945 41.8126 22.3945C43.9805 22.3945 45.7383 20.6367 45.7383 18.4688C45.7383 17.5078 45.3868 16.6289 44.8243 15.9492L51.9141 7.44141C52.4415 7.69922 53.0274 7.85156 53.6485 7.85156C55.8165 7.85156 57.5743 6.09375 57.5743 3.92578C57.5743 1.75781 55.8165 0 53.6485 0C51.4805 0 49.7227 1.75781 49.7227 3.92578C49.7227 4.80469 50.0157 5.61328 50.5079 6.26953L43.3594 14.8477C42.8907 14.6484 42.3751 14.543 41.8243 14.543C39.6563 14.543 37.8985 16.3008 37.8985 18.4688C37.8985 19.1602 38.086 19.8164 38.4024 20.3906L30.2579 27.9258C29.6368 27.5039 28.8868 27.2695 28.0782 27.2695C26.6719 27.2695 25.4297 28.0195 24.7383 29.1328L21.4688 28.0664C21.4805 27.9609 21.4805 27.8555 21.4805 27.75C21.4805 25.5937 19.711 23.8359 17.543 23.8359ZM17.543 29.8242C16.3946 29.8242 15.4571 28.8867 15.4571 27.7383C15.4454 26.5898 16.3829 25.6523 17.543 25.6523C18.6915 25.6523 19.629 26.5898 19.629 27.7383C19.6407 28.8867 18.7032 29.8242 17.543 29.8242ZM53.6485 1.82812C54.7969 1.82812 55.7344 2.76562 55.7344 3.91406C55.7344 5.0625 54.7969 6 53.6485 6C52.5001 6 51.5626 5.0625 51.5626 3.91406C51.5508 2.76562 52.4883 1.82812 53.6485 1.82812ZM41.8243 16.3711C42.9727 16.3711 43.9102 17.3086 43.9102 18.457C43.9102 19.6055 42.9727 20.543 41.8243 20.543C40.6758 20.543 39.7383 19.6055 39.7383 18.457C39.7383 17.3086 40.6758 16.3711 41.8243 16.3711ZM28.0782 29.1094C29.2266 29.1094 30.1641 30.0469 30.1641 31.1953C30.1641 32.3438 29.2266 33.2812 28.0782 33.2812C26.9297 33.2812 25.9922 32.3438 25.9922 31.1953C25.9922 30.0469 26.9297 29.1094 28.0782 29.1094Z" fill="#2D527C"/>
<path d="M58.5351 55.1836H58.1953V12.0352C58.1953 11.5312 57.7851 11.1211 57.2812 11.1211H50.0273C49.5234 11.1211 49.1133 11.5312 49.1133 12.0352V55.1719H46.3828V26.0156C46.3828 25.5117 45.9726 25.1016 45.4687 25.1016H38.2031C37.6992 25.1016 37.2891 25.5117 37.2891 26.0156V55.1836H34.5586V44.2852C34.5586 43.7812 34.1484 43.3711 33.6445 43.3711H26.3672C25.8633 43.3711 25.4531 43.7812 25.4531 44.2852V55.1836H22.7227V36.8437C22.7227 36.3398 22.3125 35.9297 21.8086 35.9297H14.5547C14.0508 35.9297 13.6406 36.3398 13.6406 36.8437V55.1836H7.25391V4.40625C7.25391 3.19922 5.42578 3.19922 5.42578 4.40625V8.37891L3.36328 8.41406C2.15625 8.4375 2.19141 10.2539 3.375 10.2539C4.05469 10.2539 4.74609 10.2305 5.42578 10.2187V20.1914L3.33984 20.2266C2.13281 20.25 2.16797 22.0664 3.35156 22.0664C4.04297 22.0664 4.73437 22.043 5.42578 22.0312V32.0156L3.33984 32.0508C2.13281 32.0742 2.16797 33.8906 3.35156 33.8906C4.04297 33.8906 4.73437 33.8672 5.42578 33.8555V43.8398L3.33984 43.875C2.13281 43.8984 2.17969 45.7148 3.36328 45.7148L5.42578 45.6797V55.1719H1.47656C0.28125 55.1719 0.28125 57 1.47656 57H5.4375L5.47266 59.0859C5.49609 60.3047 7.32422 60.2578 7.30078 59.0508L7.26562 57.0117H17.25L17.2852 59.0977C17.3086 60.3164 19.1484 60.2695 19.1133 59.0625L19.0781 57H29.0625L29.0977 59.0859C29.1211 60.3047 30.9492 60.2578 30.9258 59.0508L30.8906 56.9883H40.8984L40.9336 59.0742C40.957 60.293 42.7969 60.2461 42.7617 59.0391L42.7266 56.9766H52.7109L52.7461 59.0625C52.7695 60.2812 54.5976 60.2344 54.5742 59.0273L54.5391 56.9648H58.5117C59.6719 56.9531 59.7773 55.1836 58.5351 55.1836ZM20.8711 55.1836H15.457V41.6484H20.8711V55.1836ZM20.8711 39.7969H15.457V37.7578H20.8711V39.7969ZM32.707 55.1836H27.293V49.2539H32.707V55.1836ZM32.707 47.4023H27.293V45.1875H32.707V47.4023ZM44.5312 55.1836H39.1172V30.7734H44.5312V55.1836ZM44.5312 28.9453H39.1172V26.9414H44.5312V28.9453ZM56.3555 55.1719H50.9414V16.6758H56.3555V55.1719ZM56.3555 14.8359H50.9414V12.9492H56.3555V14.8359Z" fill="#2D527C"/>
</g>
<defs>
<clipPath id="clip0_97_1253">
<rect width="60" height="60" fill="white"/>
</clipPath>
</defs>
</svg>
