<svg width="60" height="60" viewBox="0 0 60 60" fill="none" xmlns="http://www.w3.org/2000/svg">
<path d="M7.69922 25.4648V37.5117H12.0938V25.4648C12.0938 25.0078 12.4219 24.6211 12.8555 24.5391L9.89063 21.9258L6.92578 24.5391C7.37109 24.6211 7.69922 25.0078 7.69922 25.4648ZM31.0781 58.1367H50.3203L48.4102 44.25H32.9883L31.0781 58.1367ZM32.168 42.375H39.6211L37.7109 28.4883H22.2891L20.3906 42.375H27.8438H32.168ZM27.0234 44.25H11.6016L9.69141 58.1367H28.9336L27.0234 44.25Z" fill="#68B1FF"/>
<path d="M30 20.543C35.1445 20.543 39.3281 16.3594 39.3281 11.2148C39.3281 6.07031 35.1445 1.88672 30 1.88672C24.8555 1.88672 20.6719 6.07031 20.6719 11.2148C20.6719 16.3594 24.8555 20.543 30 20.543ZM29.0625 6.35156V5.84766C29.0625 4.61719 30.9375 4.61719 30.9375 5.84766V6.35156H32.6602C33.8906 6.35156 33.8906 8.22656 32.6602 8.22656H29.1211C27.8438 8.22656 27.8438 10.2305 29.1211 10.2305H30.8906C34.6289 10.2305 34.6758 16.0313 30.9375 16.0898V16.5938C30.9375 17.8242 29.0625 17.8242 29.0625 16.5938V16.0898H27.4805C26.25 16.0898 26.25 14.2148 27.4805 14.2148H30.8906C32.1797 14.2148 32.1797 12.1055 30.8906 12.1055H29.1211C25.3594 12.0469 25.3594 6.41016 29.0625 6.35156Z" fill="white"/>
<path d="M47.1328 24.5391C47.5781 24.6211 47.9062 25.0078 47.9062 25.4648V37.5117H52.3008V25.4648C52.3008 25.0078 52.6406 24.6211 53.0625 24.5391L50.0977 21.9258L47.1328 24.5391Z" fill="#68B1FF"/>
<path d="M30 22.4062C36.1758 22.4062 41.2031 17.3789 41.2031 11.2031C41.2031 5.02734 36.1758 0 30 0C23.8242 0 18.7969 5.02734 18.7969 11.2031C18.7969 17.3906 23.8242 22.4062 30 22.4062ZM30 1.88672C35.1445 1.88672 39.3281 6.07031 39.3281 11.2148C39.3281 16.3594 35.1445 20.543 30 20.543C24.8555 20.543 20.6719 16.3594 20.6719 11.2148C20.6719 6.07031 24.8555 1.88672 30 1.88672ZM6.76174 39.375H13.0313C13.5469 39.375 13.957 38.9648 13.957 38.4375V26.3906H15.3164C16.1719 26.3906 16.5938 25.3242 15.9375 24.75L10.5117 19.957C10.1602 19.6406 9.62111 19.6406 9.26955 19.957L3.84377 24.75C3.18752 25.3242 3.60939 26.3906 4.46486 26.3906H5.82424V38.4375C5.82424 38.9531 6.24611 39.375 6.76174 39.375ZM9.89064 21.9258L12.8555 24.5391C12.4219 24.6211 12.0938 25.0078 12.0938 25.4648V37.5117H7.69924V25.4648C7.69924 25.0078 7.37111 24.6211 6.9258 24.5391L9.89064 21.9258ZM54.1875 38.4492V26.4023H55.5469C56.4024 26.4023 56.8125 25.3359 56.1563 24.7617L50.7305 19.9688C50.3789 19.6523 49.8399 19.6523 49.4883 19.9688L44.0625 24.7617C43.4063 25.3359 43.8281 26.4023 44.6836 26.4023H46.043V38.4492C46.043 38.9648 46.4649 39.3867 46.9805 39.3867H53.25C53.7656 39.3867 54.1875 38.9648 54.1875 38.4492ZM52.3008 25.4648V37.5117H47.9063V25.4648C47.9063 25.0078 47.5781 24.6211 47.1328 24.5391L50.0977 21.9258L53.0625 24.5391C52.6406 24.6211 52.3008 25.0078 52.3008 25.4648Z" fill="#2D527C"/>
<path d="M8.61313 60H51.3749C51.9374 60 52.3827 59.5078 52.3006 58.9453L50.1444 43.1836C50.0858 42.7148 49.6874 42.375 49.2186 42.375H41.5077L39.4569 27.4219C39.3983 26.9531 38.9998 26.6133 38.5311 26.6133H21.4803C21.0116 26.6133 20.6131 26.9531 20.5545 27.4219L18.5038 42.375H10.7811C10.3123 42.375 9.91391 42.7148 9.85532 43.1836L7.68735 58.9453C7.61704 59.5078 8.03891 60 8.61313 60ZM48.41 44.25L50.3202 58.1367H31.078L32.9881 44.25H48.41ZM29.9998 52.1836L28.91 44.2383H31.0897L29.9998 52.1836ZM22.2889 28.4883H37.7108L39.6209 42.375H20.3905L22.2889 28.4883ZM11.6014 44.25H27.0233L28.9334 58.1367H9.69126L11.6014 44.25ZM29.1209 12.1055H30.8905C32.1795 12.1055 32.1795 14.2148 30.8905 14.2148H27.4803C26.2498 14.2148 26.2498 16.0898 27.4803 16.0898H29.0623V16.5938C29.0623 17.8242 30.9373 17.8242 30.9373 16.5938V16.0898C34.6756 16.0312 34.6288 10.2305 30.8905 10.2305H29.1209C27.8436 10.2305 27.8436 8.22656 29.1209 8.22656H32.66C33.8905 8.22656 33.8905 6.35156 32.66 6.35156H30.9373V5.84766C30.9373 4.61719 29.0623 4.61719 29.0623 5.84766V6.35156C25.3592 6.41016 25.3592 12.0469 29.1209 12.1055Z" fill="#2D527C"/>
</svg>
