<svg width="60" height="60" viewBox="0 0 60 60" fill="none" xmlns="http://www.w3.org/2000/svg">
<g clip-path="url(#clip0_99_2099)">
<path d="M12.4336 25.6992V27.1992L13.043 27.7383C14.8008 24.5508 17.4141 21.9023 20.5898 20.1328L17.6484 17.5312L9.46875 24.75L11.4961 24.7617C12.0117 24.7617 12.4336 25.1719 12.4336 25.6992ZM49.3477 51.1172H53.625V37.1133C53.625 36.5977 54.0352 36.1875 54.5508 36.1875H56.5898L49.3477 29.7891V51.1172Z" fill="white"/>
<path d="M37.043 13.9805V19.0078C41.625 20.8008 45.3633 24.3047 47.4727 28.7227V13.9805C47.4727 13.4648 47.8945 13.043 48.4102 13.043H50.4375L42.2578 5.82422L34.0781 13.043H36.1055C36.6211 13.043 37.043 13.4648 37.043 13.9805Z" fill="#68B1FF"/>
<path d="M12.5273 37.0195C12.5273 46.6524 20.3672 54.4922 30 54.4922C39.6328 54.4922 47.4727 46.6524 47.4727 37.0195C47.4727 27.3867 39.6328 19.5469 30 19.5469C20.3672 19.5352 12.5273 27.375 12.5273 37.0195ZM28.418 29.0391H29.0625V27.3867C29.0625 26.1563 30.9375 26.1563 30.9375 27.3867V29.0391H34.7578C35.9883 29.0391 35.9883 30.9141 34.7578 30.9141H28.418C25.1367 30.9141 25.1367 35.9766 28.418 35.9766H31.5938C37.3594 35.9766 37.3594 45.0117 31.5938 45.0117H30.9375V46.6641C30.9375 47.8945 29.0625 47.8945 29.0625 46.6641V45H25.4766C24.2461 45 24.2461 43.125 25.4766 43.125H31.5938C34.8867 43.125 34.9102 37.8399 31.5938 37.8399H28.418C22.6758 37.8399 22.6641 29.0391 28.418 29.0391Z" fill="white"/>
<path d="M6.36328 37.1133V51.1289H16.7578C13.0078 47.5781 10.6523 42.5742 10.6523 37.0312C10.6523 34.3594 11.2031 31.8047 12.1875 29.4844L11.5898 28.957L3.41016 36.1758H5.4375C5.95313 36.1758 6.375 36.5742 6.36328 37.1133ZM43.2305 51.1172H47.4727V45.3164C46.4297 47.5078 44.9883 49.4766 43.2305 51.1172Z" fill="#68B1FF"/>
<path d="M0.937307 38.0508H4.49981V52.0664C4.49981 52.582 4.92168 53.0039 5.43731 53.0039H19.1014C22.2068 55.1367 25.9686 56.3789 29.9998 56.3789C34.0428 56.3789 37.7928 55.1367 40.91 53.0039H54.5623C55.0779 53.0039 55.4998 52.582 55.4998 52.0664V38.0508H59.0623C59.9061 38.0508 60.3396 36.9844 59.6834 36.4102L49.3475 27.2812V14.918H52.91C53.7537 14.918 54.1873 13.8516 53.5311 13.2773L42.8787 3.86719C42.5271 3.55078 41.9881 3.55078 41.6365 3.86719L30.9842 13.2773C30.3279 13.8516 30.7498 14.918 31.6053 14.918H35.1678V18.3867C33.5154 17.9297 31.7811 17.6836 29.9998 17.6836C27.3045 17.6836 24.7381 18.2344 22.4061 19.2422L18.2693 15.5859C17.9178 15.2695 17.3787 15.2695 17.0272 15.5859L6.37481 24.9961C5.71856 25.5703 6.15215 26.6367 6.9959 26.6367H10.5584V27.375L0.316213 36.4102C-0.340037 36.9844 0.0935565 38.0508 0.937307 38.0508ZM47.4725 51.1172H43.2303C44.9881 49.4648 46.4295 47.4961 47.4725 45.3164V51.1172ZM56.5896 36.1875H54.5506C54.035 36.1875 53.6248 36.5977 53.6248 37.1133V51.1289H49.3475V29.7891L56.5896 36.1875ZM34.0779 13.043L42.2576 5.82422L50.4373 13.043H48.41C47.8943 13.043 47.4725 13.4648 47.4725 13.9805V28.7227C45.3631 24.3047 41.6248 20.8008 37.0428 19.0078V13.9805C37.0428 13.4648 36.6209 13.043 36.1053 13.043H34.0779ZM29.9998 19.5352C39.6326 19.5352 47.4725 27.375 47.4725 37.0078C47.4725 46.6406 39.6326 54.4805 29.9998 54.4805C20.367 54.4805 12.5272 46.6406 12.5272 37.0078C12.5272 27.375 20.367 19.5352 29.9998 19.5352ZM9.46856 24.75L17.6482 17.5313L20.5896 20.1328C17.4139 21.9023 14.8006 24.5508 13.0428 27.7383L12.4334 27.1992V25.6992C12.4334 25.1836 12.0115 24.7617 11.4959 24.7617L9.46856 24.75ZM11.5897 28.957L12.1873 29.4844C11.2029 31.8047 10.6522 34.3594 10.6522 37.0312C10.6522 42.5859 13.0076 47.5898 16.7576 51.1289H6.36309V37.1133C6.37481 36.5859 5.95293 36.1758 5.43731 36.1758H3.40996L11.5897 28.957Z" fill="#2D527C"/>
<path d="M28.418 37.8398H31.5938C34.9102 37.8398 34.8867 43.125 31.5938 43.125H25.4766C24.2461 43.125 24.2461 45 25.4766 45H29.0625V46.6523C29.0625 47.8828 30.9375 47.8828 30.9375 46.6523V45H31.5938C37.3594 45 37.3594 35.9648 31.5938 35.9648H28.418C25.1367 35.9648 25.1367 30.9023 28.418 30.9023H34.7578C35.9883 30.9023 35.9883 29.0273 34.7578 29.0273H30.9375V27.375C30.9375 26.1445 29.0625 26.1445 29.0625 27.375V29.0273H28.418C22.6641 29.0391 22.6758 37.8398 28.418 37.8398Z" fill="#2D527C"/>
</g>
<defs>
<clipPath id="clip0_99_2099">
<rect width="60" height="60" fill="white"/>
</clipPath>
</defs>
</svg>
