<svg width="38" height="38" viewBox="0 0 38 38" fill="none" xmlns="http://www.w3.org/2000/svg">
<rect x="0.5" y="0.5" width="37" height="37" rx="3.5" stroke="#11B6FF"/>
<path d="M14 16H9V29H14V16Z" fill="#11B6FF"/>
<path d="M14 11.4991C13.9712 10.0805 13.0348 9 11.5144 9C9.994 9 9 10.0805 9 11.4991C9 12.8884 9.96462 14 11.4567 14H11.4851C13.0348 14 14 12.8884 14 11.4991Z" fill="#11B6FF"/>
<path d="M29 21.7171C29 17.8157 26.8993 16 24.0971 16C21.8362 16 20.824 17.2328 20.2588 18.0976V16.2986H16C16.0561 17.4904 16 29 16 29H20.2588V21.9065C20.2588 21.5269 20.2864 21.1482 20.399 20.8764C20.7068 20.1181 21.4075 19.3329 22.584 19.3329C24.1255 19.3329 24.7417 20.4976 24.7417 22.2044V28.9997H28.9998L29 21.7171Z" fill="#11B6FF"/>
</svg>
