<svg width="90" height="48" viewBox="0 0 90 48" fill="none" xmlns="http://www.w3.org/2000/svg">
<g clip-path="url(#clip0_115_596)">
<path d="M44.8074 0.129383C42.8046 0.375202 40.3138 0.957417 38.6063 1.57844L37.8616 1.85014L37.9002 2.76873C37.9387 3.68733 37.9387 3.68733 38.3238 3.72615C39.1584 3.80378 40.699 4.1531 41.2254 4.38599C42.214 4.82588 47.786 5.86092 49.7119 5.96442C50.3153 6.00324 50.3281 5.9903 50.7261 5.39515C51.4451 4.29542 52.7546 3.81672 53.3837 4.39893C53.8973 4.87763 54.4365 6.27494 54.4365 7.12885C54.4365 7.37467 54.8345 7.86631 56.0799 9.13424C56.9786 10.0528 57.9929 11.1914 58.3267 11.6701C59.02 12.6404 59.5721 13.8825 59.5849 14.5164C59.5977 14.8916 59.8031 15.1375 61.2796 16.5089C62.2168 17.3757 63.2825 18.3202 63.6548 18.6178C64.0143 18.9154 64.3224 19.2518 64.3224 19.3553C64.3224 19.6528 63.4879 21.2183 63.0642 21.7229L62.7176 22.124L61.9986 21.9687C61.4722 21.8652 61.1512 21.8523 60.8431 21.9558C60.4579 22.0722 60.4451 22.0981 60.6633 22.1757C60.8046 22.2275 61.1127 22.3569 61.3566 22.4604L61.7803 22.6545L61.2924 23.0297C60.689 23.4825 60.5863 23.4954 58.7375 23.1461C57.9415 22.9908 57.1327 22.9003 56.9529 22.952C56.7604 23.0038 56.388 23.2367 56.1184 23.4825C55.2711 24.2588 54.2696 24.5563 54.1156 24.0647C54 23.7024 53.7304 23.5989 52.7033 23.4954C52.2154 23.4437 51.291 23.3272 50.6748 23.2108C49.5963 23.0297 49.5321 23.0297 49.1983 23.2625C48.6334 23.6636 47.5036 24.207 46.5535 24.5305C46.0656 24.6987 45.5264 24.9315 45.3595 25.035C44.7818 25.4232 42.612 28.5542 39.6719 33.2507L38.0927 35.7736L37.592 37.6755L37.0913 39.5774L38.0927 42.1132L39.0813 44.662L38.8759 46.0334C38.5678 48.1553 38.2725 48 42.5606 48C45.9629 48 46.0913 47.9871 46.0913 47.7542C46.0913 47.0814 45.5906 45.4771 44.5892 42.9024L43.485 40.0561L45.2953 36.4981L47.1056 32.9272L47.6576 32.9531C47.9658 32.9531 49.0057 33.0049 49.9815 33.0695C51.214 33.1342 52.0357 33.1084 52.6391 33.0049L53.525 32.8367L54.4365 33.3283C55.4765 33.8846 55.4765 33.7811 54.642 35.3725C53.9615 36.6922 53.679 36.8345 52.3823 36.4075C50.8031 35.89 51.0342 35.6442 50.0457 38.814C49.5706 40.3407 49.1983 41.5957 49.2111 41.5957C49.224 41.6086 49.6605 41.7639 50.174 41.958L51.0984 42.2943L51.8559 41.8674C52.485 41.5051 53.0114 41.3628 54.8345 41.0135C56.0671 40.7935 57.107 40.5606 57.1455 40.5218C57.1969 40.4701 58.224 38.6458 59.4308 36.4593C60.7661 34.0528 61.6006 32.4097 61.5492 32.3191C61.4979 32.2286 61.087 31.6722 60.6377 31.103L59.8288 30.0421L61.1641 29.2399L62.5121 28.4507L63.8345 29.3434C64.5663 29.848 65.4394 30.5337 65.7732 30.896L66.4023 31.5299L66.4665 33.0695C66.505 33.9364 66.6077 34.7515 66.7104 34.9456C66.9672 35.4631 68.2382 36.5757 69.2782 37.1838C70.1769 37.7143 70.2283 37.7272 70.9601 37.6367C71.3709 37.5849 71.8203 37.5332 71.9615 37.5332C72.1798 37.5202 72.3081 37.2873 72.6548 36.2264C73.0014 35.1655 73.2069 34.7515 73.8231 33.9752C74.632 32.9531 76.224 31.5946 77.5592 30.7925C78.4579 30.2491 79.7546 28.9553 80.0756 28.2566L80.281 27.8297L79.6391 27.1181C79.2539 26.704 78.8944 26.1477 78.7789 25.7854L78.5735 25.1774L79.0485 25.6431C79.8702 26.4323 81.0257 27.1569 81.8859 27.4286C83.2468 27.8555 87.7404 28.0884 89.4223 27.8167C89.9743 27.7391 90 27.7132 89.6148 27.7003C88.087 27.6356 84.9672 26.3935 83.2468 25.1644C82.7974 24.841 82.1427 24.207 81.7832 23.7671C81.1669 23.0038 80.2554 21.3865 80.0499 20.7008C79.9601 20.4162 80.0243 20.4421 80.5378 20.9208C80.8716 21.2313 81.1926 21.4771 81.2568 21.4771C81.4879 21.4771 81.6548 20.9984 81.6548 20.3774C81.6548 19.2518 80.2168 17.1299 79.0357 16.5348C78.0599 16.0431 76.4037 14.6199 75.3253 13.352C73.2197 10.8938 69.5606 7.64636 66.2354 5.27871C62.8203 2.84636 58.6733 1.20324 53.8716 0.375206C52.6391 0.155258 51.6377 0.0905685 49.0442 0.0646935C47.2468 0.0388145 45.3338 0.0646935 44.8074 0.129383ZM75.8388 26.3806C76.0314 26.8334 75.98 27.8685 75.7618 27.9978C75.6206 28.0884 75.1455 27.558 74.9786 27.1181C74.8759 26.8334 74.8759 26.5488 74.9915 26.0313L75.1327 25.3067L75.3895 25.6302C75.5178 25.7984 75.7233 26.1348 75.8388 26.3806Z" fill="#1D7CA6"/>
<path d="M55.5918 14.0765C55.5918 14.2189 56.2337 14.814 56.5804 14.9951C56.9655 15.1892 57.5433 15.1763 57.8386 14.9563C58.0568 14.8011 58.0568 14.7493 57.9028 14.5552C57.5946 14.18 57.0297 13.973 56.2979 13.973C55.9128 13.973 55.5918 14.0248 55.5918 14.0765Z" fill="#1C7DA7"/>
<path d="M80.8843 28.4377C80.8843 28.8647 82.4763 29.7704 83.7987 30.1067C84.9029 30.3784 88.7417 30.4302 88.9985 30.1714C89.114 30.055 89.0883 30.0162 88.8059 30.0162C88.0612 30.0162 86.4307 29.6022 85.6347 29.2011C84.9286 28.8518 84.6461 28.7871 83.7731 28.7741C83.2082 28.7612 82.348 28.6577 81.8729 28.5412C80.8587 28.2954 80.8843 28.3084 80.8843 28.4377Z" fill="#1C7DA7"/>
<rect y="13.2923" width="6.58537" height="34.7077" rx="1" fill="#1D7CA6"/>
<rect x="11.7075" y="6.64615" width="6.21951" height="41.3538" rx="1" fill="#1D7CA6"/>
<rect x="23.7803" width="6.58537" height="48" rx="1" fill="#1D7CA6"/>
</g>
<defs>
<clipPath id="clip0_115_596">
<rect width="90" height="48" fill="white"/>
</clipPath>
</defs>
</svg>
