<svg width="60" height="60" viewBox="0 0 60 60" fill="none" xmlns="http://www.w3.org/2000/svg">
<path d="M39.3867 48.1055H54.9492V44.6719H39.3867V48.1055ZM46.4766 45.4453H47.8594C49.1133 45.4687 49.0781 47.3203 47.8594 47.3203H46.4766C45.2461 47.3203 45.2461 45.4453 46.4766 45.4453Z" fill="#68B1FF"/>
<path d="M37.5 49.0547V31.3594H5.05078V50.7422L54.9492 50.7539V49.9922H38.4375C37.9219 49.9922 37.5 49.5703 37.5 49.0547ZM57.0703 19.7578V4.99219C57.0703 4.81641 56.918 4.66406 56.7422 4.66406H33.7031C33.5273 4.66406 33.375 4.81641 33.375 4.99219V19.7578C33.375 19.9336 33.5273 20.0859 33.7148 20.0859H56.7422C56.918 20.0859 57.0703 19.9336 57.0703 19.7578ZM39.8906 16.3828C39.8906 17.6133 38.0156 17.6133 38.0156 16.3828V11.625C38.0156 10.3945 39.8906 10.3945 39.8906 11.625V16.3828ZM44.0742 15.0234C44.0742 16.2539 42.1992 16.2539 42.1992 15.0234V10.2656C42.1992 9.03516 44.0742 9.03516 44.0742 10.2656V15.0234ZM48.2578 15.7734C48.2578 17.0039 46.3828 17.0039 46.3828 15.7734V11.0156C46.3828 9.78516 48.2578 9.77344 48.2578 11.0156V15.7734ZM52.4414 13.1133C52.4414 14.3438 50.5664 14.3438 50.5664 13.1133V8.36719C50.5664 7.13672 52.4414 7.13672 52.4414 8.36719V13.1133Z" fill="white"/>
<path d="M39.3867 38.4961H54.9492V31.3594H39.3867V38.4961ZM46.4766 33.9844H47.8594C49.0898 33.9844 49.0898 35.8594 47.8594 35.8594H46.4766C45.2344 35.8711 45.2461 33.9844 46.4766 33.9844ZM39.3867 42.7852H54.9492V40.3594H39.3867V42.7852ZM46.4766 40.6406H47.8594C49.0898 40.6406 49.0898 42.5156 47.8594 42.5156H46.4766C45.2344 42.5156 45.2461 40.6406 46.4766 40.6406ZM44.0039 21.9609C44.4141 23.0977 44.4375 24.2812 44.0625 25.418H46.418C46.0078 24.3398 46.0664 23.0273 46.4531 21.9609H44.0039ZM2.94141 29.4844H57.082C58.5117 29.4844 58.5352 27.3047 57.0937 27.3047H2.94141C1.5 27.3047 1.5 29.4844 2.94141 29.4844ZM13.5586 21.9609C13.8633 22.7812 13.9453 23.6484 13.8281 24.5391C13.7812 24.8438 13.6992 25.1484 13.6055 25.4297H15.9609C15.8555 25.1484 15.7852 24.8555 15.7383 24.5391C15.6094 23.6602 15.7031 22.7812 15.9961 21.9609H13.5586Z" fill="#68B1FF"/>
<path d="M26.625 19.7578V4.99219C26.625 4.81641 26.4727 4.66406 26.2969 4.66406H3.25781C3.08203 4.66406 2.92969 4.81641 2.92969 4.99219V19.7578C2.92969 19.9336 3.08203 20.0859 3.26953 20.0859H26.2969C26.4727 20.0859 26.625 19.9336 26.625 19.7578ZM22.9102 10.1016L17.625 14.4023C17.2734 14.6953 16.7578 14.6836 16.418 14.3906L14.4375 12.6797L12.6797 14.4375C12.3398 14.7773 11.8008 14.8008 11.4258 14.5078L10.2539 13.5586L7.94531 16.0078C7.10156 16.9102 5.71875 15.6094 6.58594 14.7188L9.48047 11.6484C9.82031 11.2969 10.3711 11.25 10.7461 11.5664L11.9414 12.5273L13.7227 10.7461C14.0742 10.3945 14.625 10.3828 15 10.6992L17.0391 12.4688L21.7148 8.66016C22.6641 7.875 23.8594 9.33984 22.9102 10.1016Z" fill="white"/>
<path d="M11.5078 25.4297H2.92969C-0.972656 25.4297 -0.972656 31.3711 2.92969 31.3711H3.17578V56.3086C3.17578 57.5391 5.05078 57.5391 5.05078 56.3086V52.6172H54.9492V56.2852C54.9492 57.5156 56.8242 57.5156 56.8242 56.2852V31.3594H57.0703C60.9727 31.3594 60.9727 25.418 57.0703 25.418H48.4922C47.7539 24.4805 47.918 22.9102 48.5039 21.9492H56.7305C57.9492 21.9492 58.9336 20.9648 58.9336 19.7461V4.98047C58.9336 3.76172 57.9492 2.77734 56.7305 2.77734H33.7148C32.4961 2.77734 31.5117 3.76172 31.5117 4.98047V19.7461C31.5117 20.9648 32.4961 21.9492 33.7148 21.9492H41.9414C42.5156 22.8984 42.6914 24.4922 41.9648 25.418H18.0469C17.918 25.2539 17.6836 24.8555 17.6016 24.2461C17.5312 23.7656 17.5078 22.875 18.0703 21.9492H26.2969C27.5156 21.9492 28.5 20.9648 28.5 19.7461V4.98047C28.5 3.76172 27.5156 2.77734 26.2969 2.77734H3.26953C2.05078 2.77734 1.06641 3.76172 1.06641 4.98047V19.7461C1.06641 20.9648 2.05078 21.9492 3.26953 21.9492H11.4961C12.0586 22.875 12.0352 23.7656 11.9648 24.2461C11.8711 24.8672 11.6367 25.2539 11.5078 25.4297ZM54.9492 50.7539L5.05078 50.7422V31.3594H37.5V49.0547C37.5 49.5703 37.9219 49.9922 38.4375 49.9922H54.9492V50.7539ZM54.9492 48.1055H39.3867V44.6719H54.9492V48.1055ZM54.9492 42.7852H39.3867V40.3594H54.9492V42.7852ZM54.9492 38.4961H39.3867V31.3594H54.9492V38.4961ZM33.7148 20.0859C33.5273 20.0859 33.375 19.9336 33.375 19.7578V4.99219C33.375 4.81641 33.5273 4.66406 33.7031 4.66406H56.7422C56.918 4.66406 57.0703 4.81641 57.0703 4.99219V19.7578C57.0703 19.9336 56.918 20.0859 56.7422 20.0859H33.7148ZM46.418 25.4297H44.0625C44.4375 24.2812 44.4141 23.1094 44.0039 21.9727H46.4531C46.0664 23.0391 46.0195 24.3398 46.418 25.4297ZM3.26953 20.0859C3.08203 20.0859 2.92969 19.9336 2.92969 19.7578V4.99219C2.92969 4.81641 3.08203 4.66406 3.25781 4.66406H26.2969C26.4727 4.66406 26.625 4.81641 26.625 4.99219V19.7578C26.625 19.9336 26.4727 20.0859 26.2969 20.0859H3.26953ZM15.7383 24.5391C15.7852 24.8555 15.8555 25.1484 15.9609 25.4297H13.6055C13.6992 25.1484 13.7812 24.8438 13.8281 24.5391C13.9453 23.6484 13.8633 22.7812 13.5586 21.9609H15.9961C15.7031 22.7812 15.6094 23.6602 15.7383 24.5391ZM57.082 27.3047C58.5234 27.3047 58.5 29.4844 57.0703 29.4844H2.92969C1.5 29.4844 1.5 27.3047 2.92969 27.3047H57.082Z" fill="#2D527C"/>
<path d="M46.4766 42.5156H47.8594C49.0899 42.5156 49.0899 40.6406 47.8594 40.6406H46.4766C45.2461 40.6406 45.2344 42.5156 46.4766 42.5156ZM42.1992 10.2656V15.0234C42.1992 16.2539 44.0742 16.2539 44.0742 15.0234V10.2656C44.0742 9.03516 42.1992 9.03516 42.1992 10.2656ZM46.4766 47.3203H47.8594C49.0781 47.3203 49.1133 45.4688 47.8594 45.4453H46.4766C45.2461 45.4453 45.2461 47.3203 46.4766 47.3203ZM46.4766 35.8711H47.8594C49.0899 35.8711 49.0899 33.9961 47.8594 33.9961H46.4766C45.2461 33.9844 45.2344 35.8711 46.4766 35.8711ZM46.3828 11.0156V15.7617C46.3828 16.9922 48.2578 16.9922 48.2578 15.7617V11.0156C48.2578 9.77344 46.3828 9.78516 46.3828 11.0156ZM21.7149 8.66016L17.0391 12.4688L15 10.6992C14.625 10.3828 14.0742 10.3945 13.7227 10.7461L11.9414 12.5273L10.7461 11.5664C10.3711 11.25 9.82033 11.2969 9.48049 11.6484L6.58596 14.7187C5.71877 15.6094 7.10158 16.9102 7.94533 16.0078L10.2539 13.5586L11.4258 14.5078C11.8008 14.8008 12.3399 14.7773 12.6797 14.4375L14.4375 12.6797L16.418 14.3906C16.7578 14.6836 17.2735 14.6953 17.625 14.4023L22.9102 10.1016C23.8594 9.33984 22.6641 7.875 21.7149 8.66016ZM50.5547 8.36719V13.1133C50.5547 14.3438 52.4297 14.3438 52.4297 13.1133V8.36719C52.4414 7.13672 50.5547 7.13672 50.5547 8.36719ZM38.0156 11.625V16.3711C38.0156 17.6016 39.8906 17.6016 39.8906 16.3711V11.625C39.8906 10.3945 38.0156 10.3945 38.0156 11.625Z" fill="#2D527C"/>
</svg>
