<svg width="60" height="60" viewBox="0 0 60 60" fill="none" xmlns="http://www.w3.org/2000/svg">
<path d="M36.4453 11.3672H37.207V19.8516H36.4453V11.3672ZM22.793 17.8359H23.5547V26.3203H22.793V17.8359Z" fill="white"/>
<path d="M15.9609 25.3242H16.7227V33.8086H15.9609V25.3242ZM29.6133 17.9062H30.375V26.3906H29.6133V17.9062Z" fill="#68B1FF"/>
<path d="M10.4531 42.2812H49.5703V5.02734H10.4531V42.2812ZM41.3672 15.6797C41.3672 14.8711 41.9414 14.1914 42.7031 14.0508V11.0977C42.7031 9.83203 44.625 9.83203 44.625 11.0977V14.0508C45.3867 14.1914 45.9609 14.8711 45.9609 15.6797V24.7031C45.9609 25.5117 45.3867 26.1797 44.625 26.332V29.1914C44.625 30.457 42.7031 30.457 42.7031 29.1914V26.332C41.9414 26.1797 41.3672 25.5117 41.3672 24.7031V15.6797ZM34.5117 11.0977C34.5117 10.2891 35.0859 9.62109 35.8477 9.46875V8.68359C35.8477 7.41797 37.7813 7.41797 37.7813 8.68359V9.46875C38.543 9.62109 39.1172 10.2891 39.1172 11.0977V20.1211C39.1172 20.9297 38.543 21.6094 37.7813 21.75V26.7656C37.7813 28.0312 35.8477 28.0312 35.8477 26.7656V21.75C35.0859 21.6094 34.5117 20.9297 34.5117 20.1211V11.0977ZM27.6914 17.625C27.6914 16.8164 28.2656 16.1484 29.0273 15.9961V11.0977C29.0273 9.83203 30.9492 9.83203 30.9492 11.0977V16.0078C31.7109 16.1484 32.2852 16.8281 32.2852 17.6367V26.6602C32.2852 27.4688 31.7109 28.1484 30.9492 28.2891V29.1914C30.9492 30.457 29.0273 30.457 29.0273 29.1914V28.2891C28.2656 28.1484 27.6914 27.4688 27.6914 26.6602V17.625ZM20.8594 17.5664C20.8594 16.7578 21.4336 16.0781 22.1953 15.9375V14.6367C22.1953 13.3711 24.1289 13.3711 24.1289 14.6367V15.9375C24.8906 16.0781 25.4648 16.7578 25.4648 17.5664V26.5898C25.4648 27.3984 24.8906 28.0664 24.1289 28.2188V32.7188C24.1289 33.9844 22.1953 33.9844 22.1953 32.7188V28.2188C21.4336 28.0664 20.8594 27.3984 20.8594 26.5898V17.5664ZM14.0391 25.0547C14.0391 24.2461 14.6133 23.5664 15.375 23.4258V20.5195C15.375 19.2539 17.2969 19.2539 17.2969 20.5195V23.4258C18.0586 23.5664 18.6328 24.2461 18.6328 25.0547V34.0781C18.6328 34.8867 18.0586 35.5547 17.2969 35.707V38.6133C17.2969 39.8789 15.375 39.8789 15.375 38.6133V35.707C14.6133 35.5547 14.0391 34.8867 14.0391 34.0781V25.0547Z" fill="white"/>
<path d="M43.2891 15.9375H44.0508V24.4219H43.2891V15.9375ZM8.625 1.92188H51.375V3.09375H8.625V1.92188Z" fill="#68B1FF"/>
<path d="M35.8477 21.75V26.7656C35.8477 28.0312 37.7812 28.0312 37.7812 26.7656V21.75C38.543 21.6094 39.1172 20.9297 39.1172 20.1211V11.0977C39.1172 10.2891 38.543 9.62109 37.7812 9.46875V8.68359C37.7812 7.41797 35.8477 7.41797 35.8477 8.68359V9.46875C35.0859 9.62109 34.5117 10.2891 34.5117 11.0977V20.1211C34.5117 20.9297 35.0859 21.6094 35.8477 21.75ZM36.4453 11.3672H37.207V19.8516H36.4453V11.3672ZM42.7031 26.332V29.1914C42.7031 30.457 44.625 30.457 44.625 29.1914V26.332C45.3867 26.1797 45.9609 25.5117 45.9609 24.7031V15.6797C45.9609 14.8711 45.3867 14.1914 44.625 14.0508V11.0977C44.625 9.83203 42.7031 9.83203 42.7031 11.0977V14.0508C41.9414 14.1914 41.3672 14.8711 41.3672 15.6797V24.7031C41.3672 25.5117 41.9531 26.1797 42.7031 26.332ZM43.2891 15.9375H44.0508V24.4219H43.2891V15.9375ZM29.0273 28.2773V29.1797C29.0273 30.4453 30.9492 30.4453 30.9492 29.1797V28.2773C31.7109 28.1367 32.2852 27.457 32.2852 26.6484V17.625C32.2852 16.8164 31.7109 16.1484 30.9492 15.9961V11.0977C30.9492 9.83203 29.0273 9.83203 29.0273 11.0977V16.0078C28.2656 16.1484 27.6914 16.8281 27.6914 17.6367V26.6602C27.6914 27.457 28.2656 28.1367 29.0273 28.2773ZM29.6133 17.9063H30.375V26.3906H29.6133V17.9063ZM22.1953 28.2188V32.7188C22.1953 33.9844 24.1289 33.9844 24.1289 32.7188V28.2188C24.8906 28.0781 25.4648 27.3984 25.4648 26.5898V17.5664C25.4648 16.7578 24.8906 16.0781 24.1289 15.9375V14.6367C24.1289 13.3711 22.1953 13.3711 22.1953 14.6367V15.9375C21.4336 16.0781 20.8594 16.7578 20.8594 17.5664V26.5898C20.8594 27.3984 21.4336 28.0664 22.1953 28.2188ZM22.793 17.8359H23.5547V26.3203H22.793V17.8359Z" fill="#2D527C"/>
<path d="M51.4805 43.2422V5.02734H52.3359C52.8633 5.02734 53.2969 4.59375 53.2969 4.06641V0.960938C53.3086 0.433594 52.875 0 52.3477 0H7.66406C7.13672 0 6.70312 0.433594 6.70312 0.960938V4.05469C6.70312 4.58203 7.13672 5.01562 7.66406 5.01562H8.51953V43.2422C8.51953 43.7695 8.95312 44.2031 9.48047 44.2031H24.3516L16.0781 58.5469C15.4336 59.6602 17.1562 60.6094 17.7422 59.5078L22.125 51.9023H37.875L42.2578 59.5078C42.8906 60.6094 44.5547 59.6367 43.9219 58.5469L35.6484 44.2031H50.5195C51.0469 44.2148 51.4805 43.7812 51.4805 43.2422ZM8.625 3.09375V1.92188H51.375V3.09375H8.625ZM36.7617 49.9805H23.25L26.5898 44.2031H33.4453L36.7617 49.9805ZM49.5586 42.2812H10.4531V5.02734H49.5703V42.2812H49.5586Z" fill="#2D527C"/>
<path d="M15.375 35.707V38.6133C15.375 39.8789 17.2969 39.8789 17.2969 38.6133V35.707C18.0586 35.5547 18.6328 34.8867 18.6328 34.0781V25.0547C18.6328 24.2461 18.0586 23.5664 17.2969 23.4258V20.5195C17.2969 19.2539 15.375 19.2539 15.375 20.5195V23.4258C14.6133 23.5664 14.0391 24.2461 14.0391 25.0547V34.0781C14.0391 34.8867 14.6133 35.5547 15.375 35.707ZM15.9609 25.3242H16.7227V33.8086H15.9609V25.3242Z" fill="#2D527C"/>
</svg>
