<svg width="38" height="38" viewBox="0 0 38 38" fill="none" xmlns="http://www.w3.org/2000/svg">
<rect x="0.5" y="0.5" width="37" height="37" rx="3.5" stroke="#11B6FF"/>
<path d="M13.5413 27.39L9.75648 28.3824L10.7667 24.6936L10.5289 24.3154C9.52791 22.7239 8.99923 20.8844 9 18.9955C9.00219 13.484 13.4882 9 19.0041 9C21.6751 9.00093 24.1859 10.042 26.0739 11.9315C27.9619 13.8211 29.001 16.3326 29 19.0036C28.9978 24.5156 24.5119 29 19.0002 29H18.9961C17.2017 28.9993 15.4418 28.5174 13.9064 27.6066L13.5413 27.39Z" stroke="#11B6FF"/>
<path d="M24.957 21.9145C24.8832 21.7818 24.6864 21.7022 24.3912 21.543C24.0959 21.3838 22.6444 20.6145 22.3737 20.5083C22.1031 20.4022 21.9062 20.3492 21.7094 20.6675C21.5126 20.9858 20.9468 21.7022 20.7746 21.9145C20.6023 22.1267 20.4301 22.1533 20.135 21.9941C19.8397 21.8349 18.8884 21.4991 17.7606 20.4156C16.8829 19.5723 16.2904 18.5309 16.1182 18.2125C15.9459 17.8941 16.0998 17.722 16.2476 17.5634C16.3804 17.4209 16.5429 17.1919 16.6905 17.0063C16.8381 16.8206 16.8873 16.6879 16.9857 16.4758C17.0841 16.2634 17.0349 16.0778 16.9611 15.9186C16.8873 15.7594 16.2968 14.194 16.0508 13.5572C15.8111 12.9371 15.5677 13.0211 15.3865 13.0113C15.2145 13.002 15.0175 13 14.8207 13C14.6238 13 14.304 13.0796 14.0333 13.398C13.7627 13.7164 13 14.4858 13 16.0511C13 17.6165 14.0579 19.1287 14.2056 19.3409C14.3532 19.5533 16.2875 22.7655 19.2492 24.143C19.9536 24.4707 20.5035 24.6664 20.9324 24.8129C21.6396 25.0551 22.2833 25.0209 22.792 24.939C23.3593 24.8477 24.5388 24.1697 24.7849 23.4268C25.0308 22.6838 25.0308 22.0471 24.957 21.9145Z" fill="#11B6FF"/>
</svg>
