<svg width="38" height="38" viewBox="0 0 38 38" fill="none" xmlns="http://www.w3.org/2000/svg">
<rect x="0.5" y="0.5" width="37" height="37" rx="3.5" stroke="#11B6FF"/>
<path d="M31.4567 12.1231C31.1577 10.8937 30.2766 9.92565 29.1579 9.5971C27.1305 9 19 9 19 9C19 9 10.8695 9 8.84198 9.5971C7.72324 9.92565 6.84219 10.8937 6.54319 12.1231C6 14.3511 6 19 6 19C6 19 6 23.6487 6.54319 25.8769C6.84219 27.1063 7.72324 28.0744 8.84198 28.4031C10.8695 29 19 29 19 29C19 29 27.1305 29 29.1579 28.4031C30.2766 28.0744 31.1577 27.1063 31.4567 25.8769C32 23.6487 32 19 32 19C32 19 32 14.3511 31.4567 12.1231Z" fill="#11B6FF"/>
<path d="M16 23V15L24 19.0002L16 23Z" fill="#121115"/>
</svg>
